{
  "accessors": [
    {
      "bufferView": 2,
      "componentType": 5126,
      "count": 2393,
      "max": [
        3.7861409187316895,
        6.572621822357178,
        5.646265983581543
      ],
      "min": [
        -3.7861409187316895,
        -5.816254138946533,
        0.3493939936161041
      ],
      "type": "VEC3"
    },
    {
      "bufferView": 2,
      "byteOffset": 28716,
      "componentType": 5126,
      "count": 2393,
      "max": [
        1.0,
        1.0,
        1.0
      ],
      "min": [
        -1.0,
        -1.0,
        -1.0
      ],
      "type": "VEC3"
    },
    {
      "bufferView": 3,
      "componentType": 5126,
      "count": 2393,
      "max": [
        1.0,
        0.9999870657920837,
        1.0,
        1.0
      ],
      "min": [
        -1.0,
        -0.9999996423721313,
        -1.0,
        -1.0
      ],
      "type": "VEC4"
    },
    {
      "bufferView": 1,
      "componentType": 5126,
      "count": 2393,
      "max": [
        0.9990230202674866,
        0.98956298828125
      ],
      "min": [
        0.001281999982893467,
        0.0009769999887794256
      ],
      "type": "VEC2"
    },
    {
      "bufferView": 0,
      "componentType": 5125,
      "count": 9303,
      "type": "SCALAR"
    },
    {
      "bufferView": 2,
      "byteOffset": 57432,
      "componentType": 5126,
      "count": 3777,
      "max": [
        2.939181089401245,
        5.787228107452393,
        5.529012203216553
      ],
      "min": [
        -2.939181089401245,
        -3.151031017303467,
        1.0195670127868652
      ],
      "type": "VEC3"
    },
    {
      "bufferView": 2,
      "byteOffset": 102756,
      "componentType": 5126,
      "count": 3777,
      "max": [
        1.0,
        1.0,
        1.0
      ],
      "min": [
        -1.0,
        -1.0,
        -0.9999998807907104
      ],
      "type": "VEC3"
    },
    {
      "bufferView": 3,
      "byteOffset": 38288,
      "componentType": 5126,
      "count": 3777,
      "max": [
        1.0,
        1.0,
        1.0,
        1.0
      ],
      "min": [
        -1.0,
        -0.9999998807907104,
        -1.0,
        -1.0
      ],
      "type": "VEC4"
    },
    {
      "bufferView": 1,
      "byteOffset": 19144,
      "componentType": 5126,
      "count": 3777,
      "max": [
        0.9824219942092896,
        0.9971939921379089
      ],
      "min": [
        0.00278700003400445,
        0.006347999908030033
      ],
      "type": "VEC2"
    },
    {
      "bufferView": 0,
      "byteOffset": 37212,
      "componentType": 5125,
      "count": 14109,
      "type": "SCALAR"
    },
    {
      "bufferView": 2,
      "byteOffset": 148080,
      "componentType": 5126,
      "count": 3176,
      "max": [
        3.5506389141082764,
        5.903796195983887,
        2.2263519763946533
      ],
      "min": [
        -3.5506389141082764,
        -4.746941089630127,
        -0.0035349999088793993
      ],
      "type": "VEC3"
    },
    {
      "bufferView": 2,
      "byteOffset": 186192,
      "componentType": 5126,
      "count": 3176,
      "max": [
        1.0,
        0.9998176693916321,
        1.0
      ],
      "min": [
        -1.0,
        -0.9999979734420776,
        -1.0
      ],
      "type": "VEC3"
    },
    {
      "bufferView": 3,
      "byteOffset": 98720,
      "componentType": 5126,
      "count": 3176,
      "max": [
        1.0,
        1.0,
        1.0,
        1.0
      ],
      "min": [
        -1.0,
        -0.9996135234832764,
        -0.9994586706161499,
        -1.0
      ],
      "type": "VEC4"
    },
    {
      "bufferView": 1,
      "byteOffset": 49360,
      "componentType": 5126,
      "count": 3176,
      "max": [
        0.9902340173721313,
        0.9995009899139404
      ],
      "min": [
        0.00045900000259280205,
        0.0009769999887794256
      ],
      "type": "VEC2"
    },
    {
      "bufferView": 0,
      "byteOffset": 93648,
      "componentType": 5125,
      "count": 11508,
      "type": "SCALAR"
    },
    {
      "bufferView": 2,
      "byteOffset": 224304,
      "componentType": 5126,
      "count": 188,
      "max": [
        3.017153024673462,
        5.846027851104736,
        5.4406890869140625
      ],
      "min": [
        -3.017153024673462,
        -5.296698093414307,
        2.589181900024414
      ],
      "type": "VEC3"
    },
    {
      "bufferView": 2,
      "byteOffset": 226560,
      "componentType": 5126,
      "count": 188,
      "max": [
        0.97548907995224,
        0.8939266204833984,
        0.9582537412643433
      ],
      "min": [
        -0.97548907995224,
        -0.9096770882606506,
        0.09329932183027267
      ],
      "type": "VEC3"
    },
    {
      "bufferView": 1,
      "byteOffset": 74768,
      "componentType": 5126,
      "count": 188,
      "max": [
        0.9892579913139343,
        0.9913100004196167
      ],
      "min": [
        0.00519599998369813,
        0.0078119998797774315
      ],
      "type": "VEC2"
    },
    {
      "bufferView": 0,
      "byteOffset": 139680,
      "componentType": 5125,
      "count": 654,
      "type": "SCALAR"
    }
  ],
  "asset": {
    "extras": {
      "author": "terran4627 (https://sketchfab.com/terran4627)",
      "license": "CC-BY-4.0 (http://creativecommons.org/licenses/by/4.0/)",
      "source": "https://sketchfab.com/3d-models/small-city-car-923feecc25b44f24b1060319bfcf6205",
      "title": "Small city car"
    },
    "generator": "Sketchfab-14.86.0",
    "version": "2.0"
  },
  "bufferViews": [
    {
      "buffer": 0,
      "byteLength": 142296,
      "name": "floatBufferViews",
      "target": 34963
    },
    {
      "buffer": 0,
      "byteLength": 76272,
      "byteOffset": 142296,
      "byteStride": 8,
      "name": "floatBufferViews",
      "target": 34962
    },
    {
      "buffer": 0,
      "byteLength": 228816,
      "byteOffset": 218568,
      "byteStride": 12,
      "name": "floatBufferViews",
      "target": 34962
    },
    {
      "buffer": 0,
      "byteLength": 149536,
      "byteOffset": 447384,
      "byteStride": 16,
      "name": "floatBufferViews",
      "target": 34962
    }
  ],
  "buffers": [
    {
      "byteLength": 596920,
      "uri": "scene.bin"
    }
  ],
  "extensionsUsed": [
    "KHR_materials_specular"
  ],
  "images": [
    {
      "uri": "textures/MI_CityCar_Exterior_baseColor.png"
    },
    {
      "uri": "textures/MI_CityCar_Exterior_normal.png"
    },
    {
      "uri": "textures/MI_CityCar_Interior_baseColor.png"
    },
    {
      "uri": "textures/MI_CityCar_Interior_normal.png"
    },
    {
      "uri": "textures/MI_CityCar_Wheel_baseColor.png"
    },
    {
      "uri": "textures/MI_CityCar_Wheel_normal.png"
    },
    {
      "uri": "textures/MI_CityCar_Windows_NoRain_baseColor.png"
    }
  ],
  "materials": [
    {
      "doubleSided": true,
      "extensions": {
        "KHR_materials_specular": {
          "specularColorFactor": [
            1.0,
            1.0,
            1.0
          ],
          "specularFactor": 1.0
        }
      },
      "name": "MI_CityCar_Exterior",
      "normalTexture": {
        "index": 1
      },
      "pbrMetallicRoughness": {
        "baseColorTexture": {
          "index": 0
        },
        "metallicFactor": 0.0,
        "roughnessFactor": 0.6342256411356907
      }
    },
    {
      "doubleSided": true,
      "name": "MI_CityCar_Interior",
      "normalTexture": {
        "index": 3
      },
      "pbrMetallicRoughness": {
        "baseColorTexture": {
          "index": 2
        },
        "metallicFactor": 0.0,
        "roughnessFactor": 0.6342256411356907
      }
    },
    {
      "doubleSided": true,
      "name": "MI_CityCar_Wheel",
      "normalTexture": {
        "index": 5
      },
      "pbrMetallicRoughness": {
        "baseColorTexture": {
          "index": 4
        },
        "metallicFactor": 0.0,
        "roughnessFactor": 0.6342256411356907
      }
    },
    {
      "alphaMode": "BLEND",
      "doubleSided": true,
      "name": "MI_CityCar_Windows_NoRain",
      "pbrMetallicRoughness": {
        "baseColorFactor": [
          1.0,
          1.0,
          1.0,
          0.5714303129304774
        ],
        "baseColorTexture": {
          "index": 6
        },
        "metallicFactor": 0.0,
        "roughnessFactor": 0.6342256411356907
      }
    }
  ],
  "meshes": [
    {
      "name": "Object_0",
      "primitives": [
        {
          "attributes": {
            "NORMAL": 1,
            "POSITION": 0,
            "TANGENT": 2,
            "TEXCOORD_0": 3
          },
          "indices": 4,
          "material": 0,
          "mode": 4
        }
      ]
    },
    {
      "name": "Object_1",
      "primitives": [
        {
          "attributes": {
            "NORMAL": 6,
            "POSITION": 5,
            "TANGENT": 7,
            "TEXCOORD_0": 8
          },
          "indices": 9,
          "material": 1,
          "mode": 4
        }
      ]
    },
    {
      "name": "Object_2",
      "primitives": [
        {
          "attributes": {
            "NORMAL": 11,
            "POSITION": 10,
            "TANGENT": 12,
            "TEXCOORD_0": 13
          },
          "indices": 14,
          "material": 2,
          "mode": 4
        }
      ]
    },
    {
      "name": "Object_3",
      "primitives": [
        {
          "attributes": {
            "NORMAL": 16,
            "POSITION": 15,
            "TEXCOORD_0": 17
          },
          "indices": 18,
          "material": 3,
          "mode": 4
        }
      ]
    }
  ],
  "nodes": [
    {
      "children": [
        1
      ],
      "matrix": [
        1.0,
        0.0,
        0.0,
        0.0,
        0.0,
        2.220446049250313e-16,
        -1.0,
        0.0,
        0.0,
        1.0,
        2.220446049250313e-16,
        0.0,
        0.0,
        0.0,
        0.0,
        1.0
      ],
      "name": "Sketchfab_model"
    },
    {
      "children": [
        2,
        3,
        4,
        5
      ],
      "name": "Small City car.obj.cleaner.materialmerger.gles"
    },
    {
      "mesh": 0,
      "name": "Object_2"
    },
    {
      "mesh": 1,
      "name": "Object_3"
    },
    {
      "mesh": 2,
      "name": "Object_4"
    },
    {
      "mesh": 3,
      "name": "Object_5"
    }
  ],
  "samplers": [
    {
      "magFilter": 9729,
      "minFilter": 9987,
      "wrapS": 10497,
      "wrapT": 10497
    }
  ],
  "scene": 0,
  "scenes": [
    {
      "name": "Sketchfab_Scene",
      "nodes": [
        0
      ]
    }
  ],
  "textures": [
    {
      "sampler": 0,
      "source": 0
    },
    {
      "sampler": 0,
      "source": 1
    },
    {
      "sampler": 0,
      "source": 2
    },
    {
      "sampler": 0,
      "source": 3
    },
    {
      "sampler": 0,
      "source": 4
    },
    {
      "sampler": 0,
      "source": 5
    },
    {
      "sampler": 0,
      "source": 6
    }
  ]
}
