{
  "accessors": [
    {
      "bufferView": 2,
      "componentType": 5126,
      "count": 65532,
      "max": [
        10.556490898132324,
        24.362937927246094,
        0.0037965800147503614
      ],
      "min": [
        -1.769266963005066,
        -621.539794921875,
        -0.003904721699655056
      ],
      "type": "VEC3"
    },
    {
      "bufferView": 2,
      "byteOffset": 786384,
      "componentType": 5126,
      "count": 65532,
      "max": [
        0.016812894493341446,
        0.00874379277229309,
        -0.9998480081558228
      ],
      "min": [
        -0.01736835576593876,
        -0.010044834576547146,
        -1.0
      ],
      "type": "VEC3"
    },
    {
      "bufferView": 1,
      "componentType": 5126,
      "count": 65532,
      "max": [
        1.0,
        1.0
      ],
      "min": [
        0.0,
        0.0
      ],
      "type": "VEC2"
    },
    {
      "bufferView": 0,
      "componentType": 5125,
      "count": 377739,
      "type": "SCALAR"
    },
    {
      "bufferView": 2,
      "byteOffset": 1572768,
      "componentType": 5126,
      "count": 15681,
      "max": [
        10.556490898132324,
        -365.2894592285156,
        0.0035666893236339092
      ],
      "min": [
        -1.769266963005066,
        -492.3592224121094,
        -0.0036272071301937103
      ],
      "type": "VEC3"
    },
    {
      "bufferView": 2,
      "byteOffset": 1760940,
      "componentType": 5126,
      "count": 15681,
      "max": [
        0.015813054516911507,
        0.010767711326479912,
        -0.9998743534088135
      ],
      "min": [
        -0.014808973297476768,
        -0.01038688700646162,
        -1.0
      ],
      "type": "VEC3"
    },
    {
      "bufferView": 1,
      "byteOffset": 524256,
      "componentType": 5126,
      "count": 15681,
      "max": [
        1.0,
        1.0
      ],
      "min": [
        0.0,
        0.0
      ],
      "type": "VEC2"
    },
    {
      "bufferView": 0,
      "byteOffset": 1510956,
      "componentType": 5125,
      "count": 90441,
      "type": "SCALAR"
    },
    {
      "bufferView": 2,
      "byteOffset": 1949112,
      "componentType": 5126,
      "count": 352,
      "max": [
        0.4999999403953552,
        0.0,
        43.49999237060547
      ],
      "min": [
        -0.5,
        -0.09629572927951813,
        -0.4999999403953552
      ],
      "type": "VEC3"
    },
    {
      "bufferView": 2,
      "byteOffset": 1953336,
      "componentType": 5126,
      "count": 352,
      "max": [
        1.0,
        1.0,
        0.0
      ],
      "min": [
        -0.0,
        0.0,
        0.0
      ],
      "type": "VEC3"
    },
    {
      "bufferView": 3,
      "componentType": 5126,
      "count": 352,
      "max": [
        1.0,
        1.0,
        0.0,
        1.0
      ],
      "min": [
        -0.0,
        0.0,
        0.0,
        1.0
      ],
      "type": "VEC4"
    },
    {
      "bufferView": 1,
      "byteOffset": 649704,
      "componentType": 5126,
      "count": 352,
      "max": [
        0.9996119141578674,
        3.846540689468384
      ],
      "min": [
        0.00019182637333869934,
        -2.8465404510498047
      ],
      "type": "VEC2"
    },
    {
      "bufferView": 1,
      "byteOffset": 652520,
      "componentType": 5126,
      "count": 352,
      "max": [
        0.9996119141578674,
        3.846540689468384
      ],
      "min": [
        0.00019182637333869934,
        -2.8465404510498047
      ],
      "type": "VEC2"
    },
    {
      "bufferView": 0,
      "byteOffset": 1872720,
      "componentType": 5125,
      "count": 528,
      "type": "SCALAR"
    },
    {
      "bufferView": 2,
      "byteOffset": 1957560,
      "componentType": 5126,
      "count": 352,
      "max": [
        0.4999999403953552,
        0.0,
        43.49999237060547
      ],
      "min": [
        -0.5,
        -0.09629572927951813,
        -0.4999999403953552
      ],
      "type": "VEC3"
    },
    {
      "bufferView": 2,
      "byteOffset": 1961784,
      "componentType": 5126,
      "count": 352,
      "max": [
        1.0,
        1.0,
        0.0
      ],
      "min": [
        -0.0,
        0.0,
        0.0
      ],
      "type": "VEC3"
    },
    {
      "bufferView": 3,
      "byteOffset": 5632,
      "componentType": 5126,
      "count": 352,
      "max": [
        1.0,
        1.0,
        0.0,
        1.0
      ],
      "min": [
        -0.0,
        0.0,
        0.0,
        1.0
      ],
      "type": "VEC4"
    },
    {
      "bufferView": 1,
      "byteOffset": 655336,
      "componentType": 5126,
      "count": 352,
      "max": [
        0.9996119141578674,
        3.846540689468384
      ],
      "min": [
        0.00019182637333869934,
        -2.8465404510498047
      ],
      "type": "VEC2"
    },
    {
      "bufferView": 1,
      "byteOffset": 658152,
      "componentType": 5126,
      "count": 352,
      "max": [
        0.9996119141578674,
        3.846540689468384
      ],
      "min": [
        0.00019182637333869934,
        -2.8465404510498047
      ],
      "type": "VEC2"
    },
    {
      "bufferView": 0,
      "byteOffset": 1874832,
      "componentType": 5125,
      "count": 528,
      "type": "SCALAR"
    }
  ],
  "asset": {
    "extras": {
      "author": "saifurrehman (https://sketchfab.com/saifurrehman)",
      "license": "CC-BY-4.0 (http://creativecommons.org/licenses/by/4.0/)",
      "source": "https://sketchfab.com/3d-models/street-road-a01b47f299b24ac99a1dcd8e2111364b",
      "title": "Street road"
    },
    "generator": "Sketchfab-15.15.0",
    "version": "2.0"
  },
  "bufferViews": [
    {
      "buffer": 0,
      "byteLength": 1876944,
      "name": "floatBufferViews",
      "target": 34963
    },
    {
      "buffer": 0,
      "byteLength": 660968,
      "byteOffset": 1876944,
      "byteStride": 8,
      "name": "floatBufferViews",
      "target": 34962
    },
    {
      "buffer": 0,
      "byteLength": 1966008,
      "byteOffset": 2537912,
      "byteStride": 12,
      "name": "floatBufferViews",
      "target": 34962
    },
    {
      "buffer": 0,
      "byteLength": 11264,
      "byteOffset": 4503920,
      "byteStride": 16,
      "name": "floatBufferViews",
      "target": 34962
    }
  ],
  "buffers": [
    {
      "byteLength": 4515184,
      "uri": "scene.bin"
    }
  ],
  "images": [
    {
      "uri": "textures/Two_lane_road_wet_01_4K_Base_Color_baseColor.png"
    },
    {
      "uri": "textures/side_texture_2_baseColor.jpeg"
    },
    {
      "uri": "textures/side_texture_2_normal.png"
    }
  ],
  "materials": [
    {
      "doubleSided": true,
      "name": "Two_lane_road_wet_01_4K_Base_Color",
      "pbrMetallicRoughness": {
        "baseColorTexture": {
          "index": 0
        },
        "metallicFactor": 0.0,
        "roughnessFactor": 0.6
      }
    },
    {
      "doubleSided": true,
      "name": "side_texture_2",
      "normalTexture": {
        "index": 2
      },
      "pbrMetallicRoughness": {
        "baseColorTexture": {
          "index": 1
        },
        "metallicFactor": 0.0,
        "roughnessFactor": 0.6
      }
    }
  ],
  "meshes": [
    {
      "name": "Plane_Two_lane_road_wet_01_4K_Base_Color_0",
      "primitives": [
        {
          "attributes": {
            "NORMAL": 1,
            "POSITION": 0,
            "TEXCOORD_0": 2
          },
          "indices": 3,
          "material": 0,
          "mode": 4
        }
      ]
    },
    {
      "name": "Plane_Two_lane_road_wet_01_4K_Base_Color_0",
      "primitives": [
        {
          "attributes": {
            "NORMAL": 5,
            "POSITION": 4,
            "TEXCOORD_0": 6
          },
          "indices": 7,
          "material": 0,
          "mode": 4
        }
      ]
    },
    {
      "name": "pPlane1_side_texture_2_0",
      "primitives": [
        {
          "attributes": {
            "NORMAL": 9,
            "POSITION": 8,
            "TANGENT": 10,
            "TEXCOORD_0": 11,
            "TEXCOORD_1": 12
          },
          "indices": 13,
          "material": 1,
          "mode": 4
        }
      ]
    },
    {
      "name": "pPlane1_001_side_texture_2_0",
      "primitives": [
        {
          "attributes": {
            "NORMAL": 15,
            "POSITION": 14,
            "TANGENT": 16,
            "TEXCOORD_0": 17,
            "TEXCOORD_1": 18
          },
          "indices": 19,
          "material": 1,
          "mode": 4
        }
      ]
    }
  ],
  "nodes": [
    {
      "children": [
        1
      ],
      "matrix": [
        1.0,
        0.0,
        0.0,
        0.0,
        0.0,
        2.220446049250313e-16,
        -1.0,
        0.0,
        0.0,
        1.0,
        2.220446049250313e-16,
        0.0,
        0.0,
        0.0,
        0.0,
        1.0
      ],
      "name": "Sketchfab_model"
    },
    {
      "children": [
        2
      ],
      "matrix": [
        0.009999999776482582,
        0.0,
        0.0,
        0.0,
        0.0,
        0.0,
        0.009999999776482582,
        0.0,
        0.0,
        -0.009999999776482582,
        0.0,
        0.0,
        0.0,
        0.0,
        0.0,
        1.0
      ],
      "name": "2188ec18cd6949c799cc93439043d06a.fbx"
    },
    {
      "children": [
        3
      ],
      "name": "RootNode"
    },
    {
      "children": [
        4,
        7,
        9
      ],
      "name": "Street_road"
    },
    {
      "children": [
        5,
        6
      ],
      "matrix": [
        100.0,
        0.0,
        0.0,
        0.0,
        0.0,
        2.220446049250313e-14,
        100.0,
        0.0,
        0.0,
        -100.0,
        2.220446049250313e-14,
        0.0,
        0.0,
        0.0,
        60350.0,
        1.0
      ],
      "name": "Plane"
    },
    {
      "mesh": 0,
      "name": "Plane_Two_lane_road_wet_01_4K_Base_Color_0"
    },
    {
      "mesh": 1,
      "name": "Plane_Two_lane_road_wet_01_4K_Base_Color_0"
    },
    {
      "children": [
        8
      ],
      "matrix": [
        384.1594543457031,
        0.0,
        0.0,
        0.0,
        0.0,
        383.53295898435977,
        0.000108206143772516,
        0.0,
        0.0,
        -0.00041816487158032994,
        1482.1710205077536,
        0.0,
        -368.1827392578125,
        19.999998092651367,
        -1693.4747314453125,
        1.0
      ],
      "name": "pPlane1"
    },
    {
      "mesh": 2,
      "name": "pPlane1_side_texture_2_0"
    },
    {
      "children": [
        10
      ],
      "matrix": [
        -384.1594543457033,
        3.970870540959401e-12,
        4.704484431106659e-14,
        0.0,
        3.964394748064535e-12,
        383.53295898435977,
        -0.00010820614381241064,
        0.0,
        -1.8151359960539346e-13,
        -0.0004181648717345036,
        -1482.1710205077538,
        0.0,
        1247.175537109375,
        19.999998092651367,
        62031.87890625,
        1.0
      ],
      "name": "pPlane1_001"
    },
    {
      "mesh": 3,
      "name": "pPlane1_001_side_texture_2_0"
    }
  ],
  "samplers": [
    {
      "magFilter": 9729,
      "minFilter": 9987,
      "wrapS": 10497,
      "wrapT": 10497
    }
  ],
  "scene": 0,
  "scenes": [
    {
      "name": "Sketchfab_Scene",
      "nodes": [
        0
      ]
    }
  ],
  "textures": [
    {
      "sampler": 0,
      "source": 0
    },
    {
      "sampler": 0,
      "source": 1
    },
    {
      "sampler": 0,
      "source": 2
    }
  ]
}
